<?xml version="1.0" standalone="no"?>
<!DOCTYPE svg PUBLIC "-//W3C//DTD SVG 20010904//EN"
 "http://www.w3.org/TR/2001/REC-SVG-20010904/DTD/svg10.dtd">
<svg version="1.0" xmlns="http://www.w3.org/2000/svg"
 width="260.000000pt" height="260.000000pt" viewBox="0 0 260.000000 260.000000"
 preserveAspectRatio="xMidYMid meet">
<metadata>
Created by potrace 1.11, written by Peter Selinger 2001-2013
</metadata>
<g transform="translate(0.000000,260.000000) scale(0.100000,-0.100000)"
fill="#000000" stroke="none">
<path d="M1115 2464 c-324 -45 -574 -167 -783 -384 -140 -144 -231 -305 -288
-510 -32 -114 -39 -171 -38 -330 2 -170 5 -190 46 -335 83 -289 310 -555 580
-679 78 -37 181 -72 238 -82 19 -3 58 -9 85 -14 70 -12 287 -4 365 13 148 34
287 96 400 180 54 39 190 173 190 186 0 4 -30 34 -67 66 -37 33 -74 67 -83 75
-9 8 -54 49 -101 90 -46 41 -90 80 -97 87 -11 10 -25 0 -72 -51 -167 -177
-441 -215 -675 -93 -34 18 -92 63 -136 107 -129 127 -191 288 -184 478 2 53 6
111 10 127 13 62 55 169 87 223 44 75 169 200 244 245 59 35 167 81 216 91 13
3 34 8 48 11 14 3 70 8 125 10 112 5 231 -13 321 -46 52 -20 192 -94 204 -108
3 -3 27 -24 54 -45 120 -97 234 -287 278 -462 28 -114 31 -313 5 -419 -31
-131 -78 -244 -138 -332 -35 -50 -35 -52 -5 -78 12 -11 60 -54 106 -95 45 -41
88 -79 94 -85 6 -5 37 -34 69 -62 32 -29 63 -53 67 -53 14 0 94 117 148 218
43 78 114 259 127 320 2 9 8 37 14 62 5 25 13 72 18 105 9 68 9 342 0 395 -20
122 -38 193 -74 293 -165 460 -571 797 -1048 872 -51 8 -310 15 -350 9z"/>
<path d="M1150 1475 c-162 -50 -228 -249 -121 -362 43 -45 133 -37 156 15 5
12 12 22 15 22 3 0 30 -24 62 -53 31 -28 89 -81 129 -117 40 -36 89 -80 108
-97 20 -18 39 -33 43 -33 12 0 45 72 62 135 54 206 -54 424 -242 491 -48 17
-155 16 -212 -1z"/>
</g>
</svg>
